<?xml version="1.0" encoding="iso-8859-1"?>
<!-- Uploaded to: SVG Repo, www.svgrepo.com, Generator: SVG Repo Mixer Tools -->
<svg height="800px" width="800px" version="1.1" id="Layer_1" xmlns="http://www.w3.org/2000/svg" xmlns:xlink="http://www.w3.org/1999/xlink" 
	 viewBox="0 0 512 512" xml:space="preserve">
<polygon style="fill:#ACABB1;" points="15.019,195.698 169.247,106.655 207.804,128.915 207.804,255.999 53.577,345.044 
	15.019,322.782 "/>
<polygon style="fill:#C6C5CB;" points="15.019,195.698 15.019,322.782 53.577,345.044 53.577,217.96 "/>
<polygon style="fill:#D8D8DA;" points="15.019,195.698 169.247,106.655 207.804,128.915 53.577,217.96 "/>
<polygon style="fill:#FFA834;" points="15.019,166.956 169.247,77.913 207.804,100.174 207.804,122.434 53.577,211.478 
	15.019,189.217 "/>
<polygon style="fill:#F18700;" points="15.019,189.217 15.019,166.956 53.577,189.217 53.577,211.478 "/>
<polygon style="fill:#D07400;" points="53.577,189.217 207.804,100.174 207.804,122.434 53.577,211.478 "/>
<polygon style="fill:#FF9911;" points="53.577,233.739 111.412,200.348 362.003,345.041 304.196,378.435 304.196,400.695 
	53.577,255.999 "/>
<polygon style="fill:#F18700;" points="304.196,378.435 53.577,233.739 53.577,255.999 304.196,400.695 "/>
<polygon style="fill:#D07400;" points="72.855,267.13 72.855,298.689 304.238,432.288 304.196,400.695 "/>
<polygon style="fill:#FF9911;" points="130.69,189.217 130.689,211.478 362.003,345.041 419.867,311.652 169.247,166.956 "/>
<polygon style="fill:#F18700;" points="130.69,189.217 130.689,211.478 362.003,345.041 381.311,333.913 "/>
<g>
	<polygon style="fill:#FF9911;" points="208.838,11.131 207.804,77.913 458.424,222.608 477.702,211.478 477.702,144.696 227.083,0 
			"/>
	<polygon style="fill:#FF9911;" points="207.804,100.174 207.804,144.696 458.424,289.391 477.702,278.261 477.702,233.739 
		227.083,89.043 	"/>
</g>
<g>
	<polygon style="fill:#FFA834;" points="208.838,11.131 227.083,0 477.702,144.696 458.424,155.826 	"/>
	<polygon style="fill:#FFA834;" points="207.804,100.174 227.083,89.043 477.702,233.739 458.424,244.87 	"/>
</g>
<g>
	<polygon style="fill:#F18700;" points="477.702,144.696 477.702,211.478 458.424,222.608 458.424,155.826 	"/>
	<polygon style="fill:#F18700;" points="477.702,233.739 477.702,278.261 458.424,289.391 458.424,244.87 	"/>
</g>
<polygon style="fill:#ACABB1;" points="304.196,362.654 458.424,273.611 496.981,295.872 496.981,422.956 342.753,512 
	304.196,489.738 "/>
<polygon style="fill:#C6C5CB;" points="304.196,362.654 304.196,489.738 342.753,512 342.753,384.916 "/>
<polygon style="fill:#D8D8DA;" points="304.196,362.654 458.424,273.611 496.981,295.872 342.753,384.916 "/>
<polygon style="fill:#FFA834;" points="304.196,333.913 458.424,244.87 496.981,267.13 496.981,289.391 342.753,378.435 
	304.196,356.173 "/>
<polygon style="fill:#F18700;" points="304.196,356.173 304.196,333.913 342.753,356.173 342.753,378.435 "/>
<polygon style="fill:#D07400;" points="342.753,356.173 496.981,267.13 496.981,289.391 342.753,378.435 "/>
<polygon style="fill:#ACABB1;" points="284.928,189.211 246.372,166.951 246.372,189.187 227.083,200.348 265.65,222.603 
	284.928,211.448 "/>
<polygon style="fill:#C6C5CB;" points="246.372,166.951 246.372,189.187 265.702,200.348 265.702,178.08 "/>
<path style="fill:#D8D8DA;" d="M246.372,189.187c0,0-19.299,11.167-19.288,11.161c0.01-0.006,19.374,11.076,19.331,11.1
	s19.288-11.1,19.288-11.1L246.372,189.187z"/>
<polygon style="fill:#ACABB1;" points="400.546,256.024 361.99,233.764 361.99,255.999 342.701,267.161 381.268,289.415 
	400.546,278.261 "/>
<polygon style="fill:#C6C5CB;" points="361.99,233.764 361.99,255.999 381.32,267.161 381.32,244.893 "/>
<path style="fill:#D8D8DA;" d="M361.99,255.999c0,0-19.299,11.167-19.288,11.161c0.01-0.006,19.374,11.076,19.331,11.1
	c-0.043,0.025,19.288-11.1,19.288-11.1L361.99,255.999z"/>
</svg>