<?xml version="1.0" encoding="UTF-8" standalone="no"?>
<!-- Generator: Fusion 360, Shaper Origin Export Add-In, Version 1.6.10  -->

<svg
   shaper:fusionaddin="version:1.6.10"
   width="9cm"
   height="9cm"
   version="1.1"
   x="0cm"
   y="0cm"
   viewBox="0 0 9 9"
   enable-background="new 0 0 9 9"
   xml:space="preserve"
   id="svg2"
   sodipodi:docname="ubench logo.svg"
   inkscape:version="1.3 (0e150ed6c4, 2023-07-21)"
   xmlns:inkscape="http://www.inkscape.org/namespaces/inkscape"
   xmlns:sodipodi="http://sodipodi.sourceforge.net/DTD/sodipodi-0.dtd"
   xmlns="http://www.w3.org/2000/svg"
   xmlns:svg="http://www.w3.org/2000/svg"
   xmlns:shaper="http://www.shapertools.com/namespaces/shaper"><defs
     id="defs2" /><sodipodi:namedview
     id="namedview2"
     pagecolor="#ffffff"
     bordercolor="#000000"
     borderopacity="0.25"
     inkscape:showpageshadow="2"
     inkscape:pageopacity="0.0"
     inkscape:pagecheckerboard="0"
     inkscape:deskcolor="#d1d1d1"
     inkscape:document-units="cm"
     inkscape:zoom="1.2655903"
     inkscape:cx="168.69599"
     inkscape:cy="256.4021"
     inkscape:window-width="1920"
     inkscape:window-height="1057"
     inkscape:window-x="-8"
     inkscape:window-y="-8"
     inkscape:window-maximized="1"
     inkscape:current-layer="svg2" /><path
     d="M-0.25,0 a4.5,4.5 0 1,1 9,0 a4.5,4.5 0 1,1 -9,0z"
     transform="matrix(1,0,0,-1,0.25,4.5)"
     fill="rgb(0,0,0)"
     shaper:cutDepth="0.01"
     stroke-linecap="round"
     stroke-linejoin="round"
     id="path1" /><path
     d="M0.25,0 a4,4 0 1,1 8,0 a4,4 0 1,1 -8,0z"
     transform="matrix(1,0,0,-1,0.25,4.5)"
     fill="rgb(255,255,255)"
     stroke="rgb(0,0,0)"
     stroke-width="0.0010cm"
     stroke-linecap="round"
     stroke-linejoin="round"
     shaper:cutDepth="0.01"
     id="path2" /><g
     id="g2"
     transform="rotate(180,3.5656393,4.0509381)"><path
       d="m 2.4274634,-1.7321612 v 0 l 5.634e-4,0.00215 0.00267,0.00269 v 0 l 0.020461,0.0315 0.019556,0.031644 0.018652,0.031793 0.017751,0.031945 0.016851,0.0321 0.015953,0.032259 0.015057,0.032422 0.014162,0.032588 0.01327,0.032758 0.012379,0.032932 0.01149,0.033109 0.010603,0.03329 0.00972,0.033475 0.00883,0.033663 0.00795,0.033855 0.00707,0.034051 0.00619,0.03425 0.00532,0.034453 0.00444,0.034659 0.00357,0.034869 0.0027,0.035083 0.00183,0.0353004 9.648e-4,0.0355213 9.95e-5,0.0357461 -7.641e-4,0.0359743 -0.00163,0.0362063 -0.00249,0.0364419 -0.00334,0.0366812 -0.0042,0.036924 -0.00505,0.0371705 -0.00591,0.0374207 -0.00676,0.0376745 v 0 l -0.00188,0.00695 -0.0023,0.007506 -0.00574,0.0164221 -0.00707,0.0178723 -0.00818,0.0188067 -0.00905,0.0192253 -0.0097,0.0191282 -0.010118,0.0185154 -0.010307,0.0173866 v 0 l -3.597e-4,1.008e-4 -3.951e-4,-7.946e-4 -4.436e-4,-0.001662 -5.054e-4,-0.002502 -5.802e-4,-0.003314 -6.682e-4,-0.004099 -7.695e-4,-0.004855 -8.838e-4,-0.005584 -0.00101,-0.006285 -0.00115,-0.006959 -0.00131,-0.007604 -0.00147,-0.008222 -0.0035,-0.0181878 -0.00433,-0.0203268 -0.00526,-0.022244 -0.00629,-0.0239392 -0.00744,-0.0254126 -0.00868,-0.0266641 -0.010037,-0.0276938 -0.011495,-0.0285014 -0.013059,-0.0290873 -0.014728,-0.0294512 -0.016502,-0.0295933 -0.018382,-0.0295134 -0.020367,-0.0292117 -0.022457,-0.0286881 -0.012045,-0.0140784 -0.012607,-0.0138643 -0.013183,-0.0136224 -0.013771,-0.0133528 -0.014373,-0.0130555 -0.014987,-0.0127305 -0.015615,-0.0123777 -0.016256,-0.011997 -0.016911,-0.011589 -0.017578,-0.011153 -0.018259,-0.010689 -0.018952,-0.010198 -0.019659,-0.00968 -0.020379,-0.00913 -0.021113,-0.00856 -0.021859,-0.00795 -0.022619,-0.00732 -0.023391,-0.00667 -0.024177,-0.00598 -0.024976,-0.00527 -0.025789,-0.00453 -0.026614,-0.00376 -0.027453,-0.00296 -0.028304,-0.00214 v 0 l -0.052447,2.764e-4 -0.02573,6.575e-4 -0.02547,0.00128 -0.025262,0.00211 -0.025107,0.00315 -0.025003,0.0044 -0.024951,0.00586 v 0.6606825 0 l 2.48e-5,0.0323118 2.26e-5,0.0301294 2.03e-5,0.02802 1.83e-5,0.0259837 1.62e-5,0.0240207 1.43e-5,0.0221306 1.23e-5,0.0203136 1.05e-5,0.0185699 8.8e-6,0.0168991 7e-6,0.0153014 5.5e-6,0.013777 3.9e-6,0.0123255 2.4e-6,0.0109472 1.1e-6,0.009642 -3e-7,0.00841 -1.6e-6,0.007251 -2.8e-6,0.006165 -3.8e-6,0.005152 -5e-6,0.004213 -5.9e-6,0.003346 -6.8e-6,0.002552 -7.6e-6,0.001832 -1.75e-5,0.001795 -2e-5,-2.092e-4 -2.19e-5,-0.001629 -4.73e-5,-0.005177 -2.43e-5,-0.002378 -2.39e-5,-0.001459 -2.3e-5,4.6e-5 -2.15e-5,0.002135 -1e-5,0.002034 -9.4e-6,0.002776 -8.8e-6,0.00359 -8e-6,0.004478 -7.3e-6,0.005439 -6.3e-6,0.006473 -5.5e-6,0.00758 -4.4e-6,0.0087607 -3.3e-6,0.0100142 -2.2e-6,0.0113406 -10e-7,0.0127402 4e-7,0.0142128 1.7e-6,0.0157587 3.1e-6,0.0173776 4.7e-6,0.0190695 6.2e-6,0.0208347 7.9e-6,0.0226728 9.6e-6,0.0245842 1.14e-5,0.0265685 1.33e-5,0.0286261 1.52e-5,0.0307567 1.72e-5,0.0329604 1.93e-5,0.0352372 2.14e-5,0.0375871 v 1.4410759 l 0.00174,0.4969313 v 0 l -1.4306787,-0.00613 -0.7154528,-0.00218 -0.715562,-8.496e-4 v 0 l -0.019334,0.026535 -0.018113,0.027208 -0.016918,0.027853 -0.015749,0.028469 -0.014606,0.029057 -0.013489,0.029616 -0.012397,0.030147 -0.011332,0.03065 -0.010293,0.031124 -0.00928,0.03157 -0.00829,0.031987 -0.00733,0.032376 -0.0064,0.032736 -0.00549,0.033068 -0.0046,0.033372 -0.00375,0.033647 -0.00291,0.033894 -0.00211,0.034113 -0.00133,0.034302 -5.762e-4,0.034464 1.514e-4,0.034597 8.528e-4,0.034702 0.00153,0.034778 0.00218,0.034826 0.0062,0.069682 0.00849,0.069533 0.010566,0.069156 0.012436,0.068551 v 0 l 0.011783,0.056123 0.013687,0.055317 0.015518,0.054538 0.017279,0.053784 0.018968,0.053057 0.020585,0.052355 0.022131,0.05168 0.023605,0.05103 0.025008,0.050407 0.02634,0.049809 0.0276,0.049238 0.028788,0.048692 0.0299055,0.048173 0.030951,0.047679 0.0319252,0.047211 0.0328278,0.04677 v 0 l 0.005091,0.011352 0.005828,0.011474 0.0133345,0.022928 0.0146829,0.02226 0.0149643,0.020824 0.007254,0.00963 0.006924,0.00899 0.006461,0.00824 0.005864,0.0074 0.005134,0.00647 0.004271,0.00543 0.003274,0.00431 0.002144,0.00308 8.804e-4,0.00176 -5.166e-4,3.461e-4 -0.002047,-0.00117 -0.003711,-0.00278 -0.002521,-0.00202 -0.002987,-0.00246 -0.00347,-0.00291 -0.003969,-0.00337 -0.004485,-0.00385 -0.005017,-0.00433 -0.005567,-0.00483 -0.006133,-0.00534 -0.006715,-0.00586 -0.007315,-0.0064 -0.007931,-0.00694 -0.008564,-0.0075 -0.009213,-0.00807 -0.009879,-0.00865 -0.0105618,-0.00925 -0.0112611,-0.00986 -0.0119773,-0.010474 -0.01271,-0.011104 -0.0134594,-0.011747 -0.0142255,-0.012401 -0.0150083,-0.013068 -0.0158077,-0.013746 -0.0166238,-0.014437 -0.017457,-0.015139 v 0 l -0.071609,-0.057685 -0.071642,-0.056899 -0.1422637,-0.1128699 -0.070063,-0.056685 -0.068979,-0.057328 -0.067615,-0.058329 -0.065972,-0.059686 -0.032282,-0.030464 -0.031767,-0.030937 -0.031216,-0.031455 -0.030631,-0.032018 -0.030011,-0.032625 -0.029355,-0.033277 -0.028665,-0.033974 -0.02794,-0.034715 -0.02718,-0.035501 -0.026385,-0.036331 -0.025556,-0.037206 -0.024691,-0.038126 -0.023791,-0.039091 -0.022857,-0.0401 c -0.027412,-0.044307 -0.045004,-0.091341 -0.05758,-0.14173 l -0.00694,-0.027753 -0.00665,-0.026833 -0.00636,-0.025925 -0.00608,-0.025032 -0.00581,-0.024152 -0.00555,-0.023286 -0.0053,-0.022433 -0.00506,-0.021594 -0.00482,-0.020769 -0.00459,-0.019957 -0.00438,-0.019159 -0.00417,-0.018375 -0.00397,-0.017605 -0.00377,-0.016848 -0.00359,-0.016104 -0.00342,-0.015375 -0.00325,-0.014659 -0.00309,-0.013956 -0.00294,-0.013268 -0.0028,-0.012593 -0.00267,-0.011931 -0.00255,-0.011284 -0.00243,-0.01065 -0.00233,-0.010029 -0.00438,-0.018252 -0.00406,-0.015935 -0.00381,-0.013726 -0.00363,-0.011627 -0.00351,-0.00964 -0.00347,-0.00776 -0.0035,-0.00599 -0.00359,-0.00432 -0.00376,-0.00277 -0.00399,-0.00133 -0.00429,6.2e-6 -0.00466,0.00123 -0.0051,0.00235 -0.00561,0.00335 -0.00619,0.00425 -0.00684,0.00504 -0.00756,0.00572 -0.00834,0.00629 -0.0092,0.00675 v 0 l -0.013145,0.00935 -0.01373,0.00958 -0.029041,0.019783 -0.030854,0.020474 -0.032314,0.021014 -0.03342,0.021403 -0.034174,0.021639 -0.069197,0.04338 -0.034317,0.021438 -0.033658,0.021067 -0.032646,0.020545 -0.031281,0.019871 -0.029564,0.019045 -0.014027,0.00917 -0.013465,0.0089 -0.012859,0.00862 -0.012209,0.00832 -0.011515,0.008 -0.010776,0.00766 L -2.36733,1.786937 v 0 L -2.387803,1.766373 -2.407651,1.745418 -2.426872,1.72407 -2.445464,1.702327 -2.463426,1.680188 -2.480757,1.657651 -2.497454,1.634715 -2.513516,1.611378 -2.528942,1.587638 -2.54373,1.563493 -2.557878,1.538943 -2.571385,1.513985 -2.584249,1.488618 -2.596468,1.46284 -2.608041,1.43665 -2.618966,1.410046 l -0.010275,-0.02702 -0.00962,-0.027438 -0.00897,-0.027856 -0.00832,-0.028277 -0.00766,-0.028699 -0.007,-0.029123 -0.00634,-0.029548 -0.00568,-0.029975 -0.00502,-0.030404 -0.00436,-0.030834 -0.00369,-0.031266 -0.00302,-0.0317 -0.00235,-0.032135 -0.00168,-0.0325718 -0.00101,-0.0330102 -3.375e-4,-0.0334502 v 0 l 7.273e-4,-0.0465189 0.00218,-0.0456087 0.00363,-0.0446978 0.00509,-0.0437859 0.00654,-0.0428733 0.00799,-0.0419599 0.00944,-0.0410457 0.01089,-0.0401307 0.012338,-0.0392148 0.013786,-0.0382981 0.015232,-0.0373807 0.016678,-0.0364624 0.018124,-0.0355433 0.019568,-0.0346234 0.021012,-0.0337027 0.022454,-0.0327812 0.023896,-0.0318589 0.025337,-0.0309357 0.026778,-0.0300118 0.028217,-0.029087 0.029656,-0.0281614 0.031094,-0.027235 0.032531,-0.0263079 0.033967,-0.0253798 0.035402,-0.0244511 0.036837,-0.0235214 0.038271,-0.022591 0.039704,-0.0216597 0.041136,-0.0207277 0.042567,-0.0197948 0.043998,-0.0188612 0.045427,-0.0179266 v 0 l -0.036425,-0.0178226 -0.035281,-0.0185485 -0.034136,-0.0192728 -0.032991,-0.0199953 -0.031845,-0.0207164 -0.030698,-0.0214357 -0.029549,-0.0221535 -0.028401,-0.0228696 -0.027251,-0.0235841 -0.026101,-0.0242969 -0.024949,-0.0250083 -0.023797,-0.0257178 -0.022644,-0.0264258 -0.021491,-0.0271322 -0.020336,-0.027837 -0.019181,-0.0285401 -0.018025,-0.0292415 -0.016868,-0.0299415 -0.01571,-0.0306397 -0.014551,-0.0313363 -0.013392,-0.0320313 -0.012232,-0.0327247 -0.01107,-0.0334164 -0.00991,-0.0341066 -0.00875,-0.0347951 -0.00758,-0.0354819 -0.00642,-0.0361672 -0.00525,-0.0368508 -0.00409,-0.0375327 -0.00292,-0.0382132 -0.00175,-0.0388919 -5.845e-4,-0.0395691 v 0 l 8.941e-4,-0.05231 0.00267,-0.051331 0.00444,-0.050334 0.00619,-0.049319 0.00793,-0.048286 0.00965,-0.047235 0.011361,-0.046167 0.013057,-0.04508 0.014739,-0.043976 0.016408,-0.042854 0.018062,-0.041714 0.019703,-0.040557 0.02133,-0.039381 0.022943,-0.038187 0.024543,-0.036976 0.026129,-0.035747 0.0277,-0.0345 0.029258,-0.033235 0.030803,-0.031952 0.032333,-0.030651 0.03385,-0.029333 0.035353,-0.027996 0.036842,-0.026642 0.038317,-0.02527 0.039778,-0.02388 0.041226,-0.022472 0.04266,-0.021046 0.04408,-0.019603 0.045486,-0.018141 0.046878,-0.016662 0.048257,-0.015165 0.049621,-0.01365 v 0 l 0.033099,-0.00727 0.034443,-0.00685 0.035781,-0.00642 0.037112,-0.00599 0.038437,-0.00555 0.039755,-0.0051 0.041067,-0.00464 0.042373,-0.00418 0.043672,-0.00371 0.044965,-0.00324 0.046251,-0.00276 0.04753,-0.00227 0.048803,-0.00178 0.05007,-0.00128 0.05133,-7.718e-4 0.052584,-2.587e-4 H 1.477026 l 0.4611186,-3.38e-5 v 0 l 0.016121,0.00611 0.015938,0.00669 0.031326,0.015006 0.030585,0.017019 0.029838,0.018845 0.029085,0.020482 0.028325,0.02193 0.027559,0.023191 0.026786,0.024262 0.026006,0.025146 0.02522,0.025841 0.024428,0.026347 0.023629,0.026665 0.022824,0.026795 0.022012,0.026736 0.021193,0.026489 0.020368,0.026053 v 0 l 0.035085,0.047183 z"
       transform="matrix(1,0,0,-1,2.7220619,4.1928434)"
       fill="#000000"
       shaper:cutDepth="0.01"
       stroke-linecap="round"
       stroke-linejoin="round"
       id="path1-7"
       sodipodi:nodetypes="ccccccccccccccccccccccccccccccccccccccccccccccccccccccccccccccccccccccccccccccccccccccccccccccccccccccccccccccccccccccccccccccccccccccccccccccccccccccccccccccccccccccccccccccccccccccccccccccccccccccccccccccccccccccccccccccccccccccccccccccccccccccccccccccccccccccccccccccccccccccccccccccccccccccccccccccccccccccccccccccccccccccccccccccccccccccccccccccccccccccccccccccccccccccccccccccccccccccccccccccccccccccccccccccccccccccccccccccccccccccccccccccccccccccccccccccccccccccccccccccccccccccccccccccccccccccccccccccccccc" /><path
       d="m -0.9041012,-0.4478561 h 1.6805148 v -1.0198266 h -1.6805148 v 0 l -0.0707093,8.066e-4 -0.0346913,0.0011 -0.034186,0.00164 -0.033634,0.00224 -0.033035,0.0029 -0.032389,0.00362 -0.031696,0.0044 -0.030955,0.00524 -0.030168,0.00613 -0.029333,0.00709 -0.028451,0.0081 -0.027522,0.00918 -0.026547,0.010314 -0.025524,0.011508 -0.024453,0.01276 -0.023336,0.014072 -0.022172,0.015444 -0.020961,0.016874 -0.019702,0.018364 -0.018397,0.019913 -0.017044,0.021521 -0.015644,0.023189 -0.014198,0.024916 -0.012703,0.026702 -0.00578,0.014039 -0.00539,0.014508 -0.00499,0.014984 -0.00459,0.015468 -0.00418,0.015959 -0.00376,0.016457 -0.00334,0.016963 -0.00292,0.017476 -0.00248,0.017997 -0.00204,0.018525 -0.0016,0.01906 -0.00115,0.0196032 -6.947e-4,0.0201535 -2.328e-4,0.0207112 v 0 l 6.745e-4,0.0327357 0.00202,0.0316966 0.00336,0.0306573 0.00469,0.0296181 0.00601,0.0285789 0.00733,0.0275396 0.00864,0.0265004 0.00995,0.0254612 0.011249,0.0244219 0.012542,0.0233826 0.013828,0.0223433 0.015107,0.0213041 0.01638,0.0202647 0.017647,0.0192254 0.018906,0.0181862 0.02016,0.0171468 v 0 l 0.020005,0.0129363 0.021772,0.0121957 0.023539,0.011442 0.025305,0.0106753 0.027072,0.009896 0.028839,0.009103 0.030605,0.008298 0.032372,0.007479 0.034139,0.006648 0.035906,0.005804 0.037672,0.004946 0.039439,0.004076 0.041206,0.003193 0.0429724,0.002297 0.044739,0.001387 z"
       transform="matrix(1,0,0,-1,2.7220619,4.1928434)"
       fill="#ffffff"
       stroke="#000000"
       stroke-width="0.001cm"
       stroke-linecap="round"
       stroke-linejoin="round"
       shaper:cutDepth="0.01"
       id="path2-8" /><path
       d="M -0.8464559,1.4676827 H 0.7764136 V 0.2749146 h -1.6228695 v 0 l -0.0800582,8.27e-4 -0.0800712,0.002879 -0.039817,0.002396 -0.039553,0.003133 -0.039198,0.003945 -0.038755,0.004832 -0.038223,0.005793 -0.037601,0.006829 -0.03689,0.00794 -0.036089,0.009125 -0.035199,0.0103851 -0.03422,0.0117199 -0.033152,0.0131293 -0.031994,0.0146135 -0.030747,0.0161724 -0.02941,0.0178059 -0.027984,0.0195142 -0.02647,0.0212971 -0.012639,0.0113406 -0.012227,0.0118142 -0.011803,0.0122974 -0.011368,0.0127898 -0.010923,0.0132915 -0.010466,0.0138026 -0.01,0.0143231 -0.00952,0.0148529 -0.00903,0.0153919 -0.00853,0.0159404 -0.00801,0.0164982 -0.00749,0.0170653 -0.00695,0.0176418 -0.00641,0.0182276 -0.00585,0.0188227 -0.00528,0.0194272 -0.0047,0.0200409 -0.00411,0.0206642 -0.00351,0.0212966 -0.0029,0.0219384 -0.00227,0.0225896 -0.00164,0.0232501 -9.905e-4,0.0239199 -3.327e-4,0.0245991 v 0 l 3.263e-4,0.0248036 9.717e-4,0.024118 0.00161,0.023442 0.00223,0.0227753 0.00284,0.022118 0.00345,0.0214703 0.00404,0.020832 0.00462,0.020203 0.00519,0.019583 0.00576,0.018973 0.00631,0.018373 0.00685,0.017782 0.00738,0.0172 0.00789,0.016628 0.0084,0.016065 0.0089,0.015511 0.00939,0.014968 0.00986,0.014433 0.01033,0.013908 0.010785,0.013392 0.01123,0.012886 0.011665,0.012389 0.012088,0.011902 0.012502,0.011424 0.012904,0.010955 0.013296,0.010496 0.027727,0.019654 0.029169,0.017931 0.030526,0.016283 0.0318,0.014712 0.032988,0.013215 0.034092,0.011794 0.035112,0.010449 0.036048,0.00918 0.036898,0.00798 0.037665,0.00687 0.038347,0.00582 0.038944,0.00486 0.039458,0.00396 0.039886,0.00315 0.040231,0.0024 0.0404903,0.00174 0.0406657,0.00115 z"
       transform="matrix(1,0,0,-1,2.7220619,4.1928434)"
       fill="#ffffff"
       stroke="#000000"
       stroke-width="0.001cm"
       stroke-linecap="round"
       stroke-linejoin="round"
       shaper:cutDepth="0.01"
       id="path3" /></g></svg>
